<svg width="18" height="18" viewBox="0 0 18 18" fill="none" xmlns="http://www.w3.org/2000/svg">
<path fill-rule="evenodd" clip-rule="evenodd" d="M9 0C13.9725 0 18 4.12937 18 9.22764C18 13.3109 15.4238 16.7597 11.8463 17.9824C11.3963 18.0631 11.2275 17.7863 11.2275 17.5441C11.2275 17.3249 11.2387 16.5982 11.2387 15.8254C13.5 16.2522 14.085 15.2602 14.265 14.7412C14.3662 14.4759 14.805 13.6569 15.1875 13.4378C15.5025 13.2647 15.9525 12.838 15.1988 12.8264C14.49 12.8149 13.9838 13.4954 13.815 13.7723C13.005 15.1679 11.7113 14.7758 11.1938 14.5335C11.115 13.9337 10.8787 13.53 10.62 13.2993C12.6225 13.0687 14.715 12.2728 14.715 8.74319C14.715 7.73969 14.3662 6.9092 13.7925 6.26326C13.8825 6.03257 14.1975 5.08674 13.7025 3.81794C13.7025 3.81794 12.9488 3.57571 11.2275 4.76377C10.5075 4.55615 9.7425 4.45234 8.9775 4.45234C8.2125 4.45234 7.4475 4.55615 6.7275 4.76377C5.00625 3.56418 4.2525 3.81794 4.2525 3.81794C3.7575 5.08674 4.0725 6.03257 4.1625 6.26326C3.58875 6.9092 3.24 7.72815 3.24 8.74319C3.24 12.2843 5.34375 13.0687 7.34625 13.2993C7.02 13.5877 6.73875 14.1414 6.73875 15.0065C6.73875 16.2407 6.75 17.2326 6.75 17.5441C6.75 17.7863 6.58125 18.0746 6.13125 17.9824C4.34462 17.3639 2.79212 16.1866 1.69225 14.6161C0.592388 13.0456 0.000538385 11.1611 0 9.22764C0 4.12937 4.0275 0 9 0Z" fill="white"/>
</svg>
