<svg width="29" height="40" viewBox="0 0 29 40" fill="none" xmlns="http://www.w3.org/2000/svg">
<path d="M5.71667 40.0001H22.9567C24.4728 40.0001 25.9269 39.3978 26.999 38.3257C28.0711 37.2536 28.6734 35.7996 28.6734 34.2834V10.55H22.9567V34.2834H0C0 35.7996 0.602291 37.2536 1.67438 38.3257C2.74646 39.3978 4.20052 40.0001 5.71667 40.0001V40.0001Z" fill="white"/>
<path d="M22.9567 0H5.71667C4.20052 0 2.74646 0.602291 1.67438 1.67437C0.602291 2.74646 0 4.20052 0 5.71667V29.45H5.71667V5.71667H28.6734C28.6734 4.20052 28.0711 2.74646 26.999 1.67437C25.9269 0.602291 24.4728 0 22.9567 0V0Z" fill="white"/>
</svg>
